<svg width="392" height="393" viewBox="0 0 392 393" fill="none" xmlns="http://www.w3.org/2000/svg">
<path d="M114.333 228.992C97.3338 238.589 83.5881 253.044 74.8579 270.504C66.1278 287.965 62.8111 307.634 65.3331 326.992C84.6906 329.514 104.36 326.197 121.821 317.467C139.281 308.737 153.736 294.991 163.333 277.992M65.3332 212.659C94.457 216.12 121.57 229.278 142.308 250.017C163.047 270.756 176.205 297.868 179.667 326.992C194.104 318.669 206.18 306.801 214.754 292.511C223.328 278.221 228.116 261.981 228.667 245.325C256.092 235.677 280.041 218.114 297.485 194.856C314.928 171.597 325.084 143.689 326.667 114.659C326.667 101.663 321.504 89.1997 312.315 80.0105C303.125 70.8212 290.662 65.6587 277.667 65.6587C248.637 67.2415 220.728 77.3969 197.47 94.8407C174.211 112.284 156.648 136.233 147 163.659C130.344 164.209 114.104 168.997 99.8139 177.571C85.524 186.145 73.6565 198.221 65.3332 212.659ZM228.667 147.325C228.667 151.657 230.387 155.812 233.45 158.875C236.514 161.938 240.668 163.659 245 163.659C249.332 163.659 253.486 161.938 256.549 158.875C259.612 155.812 261.333 151.657 261.333 147.325C261.333 142.993 259.612 138.839 256.549 135.776C253.486 132.713 249.332 130.992 245 130.992C240.668 130.992 236.514 132.713 233.45 135.776C230.387 138.839 228.667 142.993 228.667 147.325Z" stroke="white" stroke-width="24.5" stroke-linecap="round" stroke-linejoin="round"/>
</svg>
